<svg viewBox="0 0 80 42" xmlns="http://www.w3.org/2000/svg" xml:space="preserve" fill-rule="evenodd" clip-rule="evenodd" stroke-linejoin="round" stroke-miterlimit="2">
  <!-- Logo "MOXI" is copyrighted Oliver Schafeld (info@schafeld.com), 2023. No unauthorized use permitted. -->
  <path d="M352.871 77.952c0 34.008 26.229 70.91 72.9 70.91 46.67 0 72.899-36.902 72.899-70.91 0-34.008-26.229-70.909-72.899-70.909-46.671 0-72.9 36.901-72.9 70.909Zm18.451 0c0-32.56 26.41-54.629 54.449-54.629 28.038 0 54.448 22.069 54.448 54.629 0 32.561-26.41 54.629-54.448 54.629-28.039 0-54.449-22.068-54.449-54.629ZM276.949 267.267c0 39.254 30.276 81.849 84.146 81.849 53.87 0 84.146-42.595 84.146-81.849 0-39.254-30.276-81.849-84.146-81.849-53.87 0-84.146 42.595-84.146 81.849Zm21.298 0c0-37.584 30.484-63.058 62.848-63.058s62.848 25.474 62.848 63.058c0 37.583-30.484 63.057-62.848 63.057s-62.848-25.474-62.848-63.057Z" fill="#88f79e" fill-rule="nonzero"/>
  <path d="M396.873 355.705c0 27.458 21.177 57.252 58.859 57.252 37.681 0 58.859-29.794 58.859-57.252 0-27.458-21.178-57.252-58.859-57.252-37.682 0-58.859 29.794-58.859 57.252Zm14.897 0c0-26.289 21.324-44.108 43.962-44.108s43.961 17.819 43.961 44.108c0 26.289-21.323 44.108-43.961 44.108-22.638 0-43.962-17.819-43.962-44.108ZM409.435 194.119c0 36.819 27.996 76.772 77.808 76.772 49.813 0 77.808-39.953 77.808-76.772 0-36.818-27.995-76.771-77.808-76.771-49.812 0-77.808 39.953-77.808 76.771Zm19.693 0c0-35.252 28.189-59.145 58.115-59.145 29.926 0 58.115 23.893 58.115 59.145 0 35.253-28.189 59.146-58.115 59.146-29.926 0-58.115-23.893-58.115-59.146Z" fill="#88f79e" fill-rule="nonzero"/>
  <path d="M144.32 246.843 58.164 86.799H31.397v211.905h26.767V141.727h.558l85.598 159.208 85.599-159.208h.557v156.977h26.767V86.799h-26.767L144.32 246.843Z" fill-rule="nonzero"/>
  <path d="m64.835 167.186 73.609 136.908a6.671 6.671 0 0 0 11.752 0l73.609-136.908v131.518a6.671 6.671 0 0 0 6.671 6.671h26.767a6.67 6.67 0 0 0 6.671-6.671V86.799a6.67 6.67 0 0 0-6.671-6.671h-26.767a6.671 6.671 0 0 0-5.874 3.509L144.32 232.769 64.038 83.637a6.67 6.67 0 0 0-5.874-3.509H31.397a6.671 6.671 0 0 0-6.671 6.671v211.905a6.671 6.671 0 0 0 6.671 6.671h26.767a6.67 6.67 0 0 0 6.671-6.671V167.186Zm79.485 79.657L58.164 86.799H31.397v211.905h26.767V141.727h.558l85.598 159.208 85.599-159.208h.557v156.977h26.767V86.799h-26.767L144.32 246.843Z" fill="#fff"/>
  <path d="M292.375 192.752c0 52.418 40.429 109.298 112.365 109.298 71.936 0 112.365-56.88 112.365-109.298 0-52.419-40.429-109.299-112.365-109.299-71.936 0-112.365 56.88-112.365 109.299Zm28.44 0c0-50.188 40.708-84.205 83.925-84.205s83.925 34.017 83.925 84.205c0 50.188-40.708 84.204-83.925 84.204s-83.925-34.016-83.925-84.204Z" fill="#20963a" fill-rule="nonzero"/>
  <path d="M285.703 192.752c0 55.573 42.772 115.969 119.037 115.969 76.265 0 119.037-60.396 119.037-115.969 0-55.574-42.772-115.97-119.037-115.97-76.265 0-119.037 60.396-119.037 115.97Zm6.672 0c0 52.418 40.429 109.298 112.365 109.298 71.936 0 112.365-56.88 112.365-109.298 0-52.419-40.429-109.299-112.365-109.299-71.936 0-112.365 56.88-112.365 109.299Zm28.44 0c0-50.188 40.708-84.205 83.925-84.205s83.925 34.017 83.925 84.205c0 50.188-40.708 84.204-83.925 84.204s-83.925-34.016-83.925-84.204Zm6.671 0c0-46.206 37.466-77.533 77.254-77.533 39.788 0 77.254 31.327 77.254 77.533 0 46.205-37.466 77.532-77.254 77.532-39.788 0-77.254-31.327-77.254-77.532Z" fill="#fff"/>
  <path d="m626.404 168.773-54.092-81.974H539.69L609.953 190.8l-73.33 107.904h33.18l56.601-85.598 56.6 85.598h33.18L642.854 190.8l70.263-104.001h-32.622l-54.091 81.974Z" fill-rule="nonzero"/>
  <path d="M626.404 156.66 577.88 83.125a6.67 6.67 0 0 0-5.568-2.997H539.69a6.672 6.672 0 0 0-5.528 10.406l67.732 100.255-70.789 104.165a6.673 6.673 0 0 0 5.518 10.421h33.18a6.67 6.67 0 0 0 5.564-2.991l51.037-77.183 51.036 77.183a6.67 6.67 0 0 0 5.564 2.991h33.18a6.672 6.672 0 0 0 5.518-10.421l-70.789-104.165 67.732-100.255a6.67 6.67 0 0 0-5.528-10.406h-32.622a6.67 6.67 0 0 0-5.568 2.997l-48.523 73.535Zm0 12.113-54.092-81.974H539.69L609.953 190.8l-73.33 107.904h33.18l56.601-85.598 56.6 85.598h33.18L642.854 190.8l70.263-104.001h-32.622l-54.091 81.974Z" fill="#fff"/>
  <path fill-rule="nonzero" d="M741.836 86.799h26.767v211.905h-26.767z"/>
  <path d="M735.165 298.704a6.67 6.67 0 0 0 6.671 6.671h26.767a6.671 6.671 0 0 0 6.671-6.671V86.799a6.671 6.671 0 0 0-6.671-6.671h-26.767a6.67 6.67 0 0 0-6.671 6.671v211.905Zm6.671 0h26.767V86.799h-26.767v211.905Z" fill="#fff"/>
</svg>
